<?xml version="1.0" encoding="UTF-8" standalone="no"?>
<!-- Created with Inkscape (http://www.inkscape.org/) -->

<svg
   xmlns:dc="http://purl.org/dc/elements/1.1/"
   xmlns:cc="http://creativecommons.org/ns#"
   xmlns:rdf="http://www.w3.org/1999/02/22-rdf-syntax-ns#"
   xmlns:svg="http://www.w3.org/2000/svg"
   xmlns="http://www.w3.org/2000/svg"
   xmlns:sodipodi="http://sodipodi.sourceforge.net/DTD/sodipodi-0.dtd"
   xmlns:inkscape="http://www.inkscape.org/namespaces/inkscape"
   version="1.0"
   width="22"
   height="22"
   id="svg3229"
   inkscape:version="0.48.0 r9654"
   sodipodi:docname="eye-version2.svg">
  <metadata
     id="metadata3043">
    <rdf:RDF>
      <cc:Work
         rdf:about="">
        <dc:format>image/svg+xml</dc:format>
        <dc:type
           rdf:resource="http://purl.org/dc/dcmitype/StillImage" />
        <dc:title></dc:title>
      </cc:Work>
    </rdf:RDF>
  </metadata>
  <sodipodi:namedview
     pagecolor="#ffffff"
     bordercolor="#666666"
     borderopacity="1"
     objecttolerance="10"
     gridtolerance="10"
     guidetolerance="10"
     inkscape:pageopacity="0"
     inkscape:pageshadow="2"
     inkscape:window-width="1024"
     inkscape:window-height="523"
     id="namedview3041"
     showgrid="false"
     inkscape:zoom="16"
     inkscape:cx="11.699309"
     inkscape:cy="12.030837"
     inkscape:window-x="0"
     inkscape:window-y="24"
     inkscape:window-maximized="1"
     inkscape:current-layer="svg3229"
     inkscape:snap-nodes="true"
     inkscape:object-paths="false"
     showguides="true"
     inkscape:guide-bbox="true" />
  <defs
     id="defs3231" />
  <path
     style="fill:none;stroke:#3a3935;stroke-width:0.98349398px;stroke-linecap:butt;stroke-linejoin:miter;stroke-opacity:0.6"
     d="M 1.375,10.883185 C 12.497201,-1.3106575 21.204053,11.116271 21.25,11.125"
     id="path3920"
     inkscape:connector-curvature="0"
     sodipodi:nodetypes="cc" />
  <path
     style="fill:none;stroke:#3a3935;stroke-width:1.07294345px;stroke-linecap:butt;stroke-linejoin:miter;stroke-opacity:0.6"
     d="M 21.3125,10.723604 C 10.190299,25.236389 1.4834472,10.446192 1.4375002,10.435802"
     id="path3920-3"
     inkscape:connector-curvature="0"
     sodipodi:nodetypes="cc" />
  <path
     sodipodi:type="arc"
     style="fill:#000000;fill-opacity:0;stroke:#3a3935;stroke-opacity:0.6"
     id="path3958"
     sodipodi:cx="11.6875"
     sodipodi:cy="11.90625"
     sodipodi:rx="3.6875"
     sodipodi:ry="3.53125"
     d="M 8.0000317,11.891597 A 3.6875,3.53125 0 1 1 8,11.90625"
     sodipodi:start="3.1457421"
     sodipodi:end="9.424778"
     sodipodi:open="true"
     transform="matrix(1.1611449,0,0,1.212523,-2.1333816,-3.0616022)" />
  <path
     style="fill:#000000;fill-opacity:0;stroke:#858585;stroke-width:0.0625;stroke-opacity:0.00454544"
     d="M 8.9680592,14.873992 C 6.9422913,14.352495 5.2242412,13.374648 3.3245556,11.661931 2.601022,11.009608 2.3821197,10.758043 2.4783205,10.689426 2.8128525,10.450815 3.9017469,9.7631653 4.3527081,9.5057279 6.0212862,8.5531969 7.9957277,7.884193 9.8118092,7.6560099 L 10.093059,7.620672 9.7180592,7.8120602 c -1.055165,0.538523 -1.8080968,1.486231 -2.0691318,2.6043968 -0.1499345,0.642256 -0.096621,1.661191 0.1184489,2.263795 0.3268813,0.915891 1.0204291,1.714453 1.8673741,2.150125 0.4063646,0.209036 0.4239246,0.226069 0.2303538,0.223443 -0.1152494,-0.0016 -0.51892,-0.08249 -0.897045,-0.179828 l 0,0 z"
     id="path4022"
     inkscape:connector-curvature="0" />
  <path
     style="fill:#000000;fill-opacity:0;stroke:#858585;stroke-width:0.0625;stroke-opacity:0.00454544"
     d="M 8.9680592,14.873992 C 7.3808947,14.465405 5.9618569,13.760495 4.5206713,12.664742 3.6087434,11.971391 2.3586011,10.79765 2.4453089,10.716213 2.5442402,10.623296 3.8944741,9.7658098 4.3527081,9.5048909 6.02816,8.5508868 7.9486239,7.8998572 9.8118092,7.6542772 L 10.093059,7.6172066 9.7218604,7.8072062 C 8.9250442,8.2150597 8.3172643,8.8266901 7.9400789,9.6002753 7.3871502,10.7343 7.4392392,12.279031 8.0664541,13.348009 c 0.3203211,0.54593 1.0031901,1.195958 1.5487651,1.474279 0.4197998,0.214158 0.4413548,0.23413 0.249885,0.231532 -0.1152494,-0.0016 -0.51892,-0.08249 -0.897045,-0.179828 z"
     id="path4024"
     inkscape:connector-curvature="0" />
  <path
     style="fill:#000000;fill-opacity:0;stroke:#858585;stroke-width:0.0625;stroke-opacity:0.00454544"
     d="M 10.655559,14.159915 C 9.6593594,13.830539 8.9730658,13.13822 8.6772173,12.164203 8.5099252,11.61343 8.5381877,10.826473 8.744468,10.291634 9.0248403,9.5646909 9.6837181,8.9036657 10.420296,8.6103438 c 0.295405,-0.1176369 0.478407,-0.1434647 1.016513,-0.1434647 0.762822,0 1.155527,0.1226174 1.702529,0.5315931 1.241888,0.9285197 1.537914,2.6491018 0.683277,3.9713908 -0.298406,0.461692 -0.663332,0.768262 -1.233102,1.035915 -0.386262,0.181448 -0.502642,0.205662 -1.058954,0.220323 -0.393921,0.01038 -0.717432,-0.01409 -0.875,-0.06619 l 0,0 z"
     id="path4028"
     inkscape:connector-curvature="0" />
  <path
     style="fill:#eae3d0;fill-opacity:1;stroke:#3a3935;stroke-width:0.06250000000000000;stroke-opacity:0.59999999999999998"
     d="m 10.749309,16.51048 c -2.116945,-0.171499 -4.2964323,-1.318321 -6.34375,-3.338013 -0.8437294,-0.832343 -2.0625,-2.297948 -2.0625,-2.480212 0,-0.0799 1.1859639,-1.2129902 1.7507937,-1.6727422 1.9229965,-1.5652529 3.7287516,-2.4548801 5.7804563,-2.847812 0.722419,-0.138354 2.490282,-0.1056258 3.259235,0.060338 1.230036,0.265479 2.618909,0.8427635 3.709515,1.5418582 1.05933,0.6790462 2.412747,1.8361398 3.210501,2.744794 l 0.364044,0.414652 -0.459094,0.546035 c -0.965234,1.148026 -2.37995,2.474693 -3.427951,3.214601 -1.461763,1.032032 -3.126525,1.692805 -4.46875,1.773723 -0.275,0.01658 -0.626563,0.03754 -0.78125,0.04659 -0.154688,0.009 -0.39375,0.0073 -0.53125,-0.0038 l 0,3e-6 z m 1.78125,-0.370682 c 2.525738,-0.519297 4.236854,-3.143348 3.713745,-5.695145 -0.365788,-1.7843648 -1.558741,-3.1341991 -3.307495,-3.7424527 -0.467121,-0.1624746 -0.565758,-0.173818 -1.5,-0.172501 -0.916346,0.00129 -1.041827,0.015419 -1.5,0.1688736 -3.5813956,1.1995093 -4.5669832,5.7414921 -1.7992719,8.2917671 0.7622688,0.702384 1.8748719,1.186412 2.9242719,1.272181 0.382657,0.03128 0.950519,-0.01617 1.46875,-0.122723 z"
     id="path4443"
     inkscape:connector-curvature="0" />
  <path
     style="fill:#eae3d0;fill-opacity:0.63636363;stroke:#3a3935;stroke-width:0.06250000000000000;stroke-opacity:0.59999999999999998"
     d="M 10.967585,14.996431 C 8.9393001,14.730847 7.4996644,12.780037 7.8405452,10.759066 8.0741528,9.3740834 9.2935637,8.0920686 10.64301,7.8127239 c 1.365855,-0.2827411 2.743163,0.2023577 3.620487,1.2751643 0.78992,0.9659278 1.025488,2.3005978 0.614591,3.4821318 -0.559864,1.609886 -2.230364,2.646408 -3.910503,2.426411 l 0,0 z"
     id="path4445"
     inkscape:connector-curvature="0" />
</svg>
