<?xml version="1.0" encoding="UTF-8" standalone="no"?>
<!-- Created with Inkscape (http://www.inkscape.org/) -->

<svg
   xmlns:dc="http://purl.org/dc/elements/1.1/"
   xmlns:cc="http://creativecommons.org/ns#"
   xmlns:rdf="http://www.w3.org/1999/02/22-rdf-syntax-ns#"
   xmlns:svg="http://www.w3.org/2000/svg"
   xmlns="http://www.w3.org/2000/svg"
   xmlns:sodipodi="http://sodipodi.sourceforge.net/DTD/sodipodi-0.dtd"
   xmlns:inkscape="http://www.inkscape.org/namespaces/inkscape"
   version="1.0"
   width="22"
   height="22"
   id="svg3229"
   inkscape:version="0.48.0 r9654"
   sodipodi:docname="eye-version3-attention.svg">
  <metadata
     id="metadata3043">
    <rdf:RDF>
      <cc:Work
         rdf:about="">
        <dc:format>image/svg+xml</dc:format>
        <dc:type
           rdf:resource="http://purl.org/dc/dcmitype/StillImage" />
        <dc:title />
      </cc:Work>
    </rdf:RDF>
  </metadata>
  <sodipodi:namedview
     pagecolor="#ffffff"
     bordercolor="#666666"
     borderopacity="1"
     objecttolerance="10"
     gridtolerance="10"
     guidetolerance="10"
     inkscape:pageopacity="0"
     inkscape:pageshadow="2"
     inkscape:window-width="1024"
     inkscape:window-height="523"
     id="namedview3041"
     showgrid="false"
     inkscape:zoom="22.627417"
     inkscape:cx="11.896406"
     inkscape:cy="7.1422484"
     inkscape:window-x="0"
     inkscape:window-y="24"
     inkscape:window-maximized="1"
     inkscape:current-layer="svg3229"
     inkscape:snap-nodes="true"
     inkscape:object-paths="false"
     showguides="true"
     inkscape:guide-bbox="true" />
  <defs
     id="defs3231" />
  <path
     style="fill:none;stroke:#3a3935;stroke-width:0.98349398px;stroke-linecap:butt;stroke-linejoin:miter;stroke-opacity:0.6"
     d="M 1.375,10.883185 C 12.497201,-1.3106575 21.204053,11.116271 21.25,11.125"
     id="path3920"
     inkscape:connector-curvature="0"
     sodipodi:nodetypes="cc" />
  <path
     style="fill:none;stroke:#3a3935;stroke-width:1.07294345px;stroke-linecap:butt;stroke-linejoin:miter;stroke-opacity:0.6"
     d="M 21.3125,10.723604 C 10.190299,25.236389 1.4834472,10.446192 1.4375002,10.435802"
     id="path3920-3"
     inkscape:connector-curvature="0"
     sodipodi:nodetypes="cc" />
  <path
     style="fill:#000000;fill-opacity:0;stroke:#858585;stroke-width:0.0625;stroke-opacity:0.00454544"
     d="M 8.9680592,14.873992 C 6.9422913,14.352495 5.2242412,13.374648 3.3245556,11.661931 2.601022,11.009608 2.3821197,10.758043 2.4783205,10.689426 2.8128525,10.450815 3.9017469,9.7631653 4.3527081,9.5057279 6.0212862,8.5531969 7.9957277,7.884193 9.8118092,7.6560099 L 10.093059,7.620672 9.7180592,7.8120602 c -1.055165,0.538523 -1.8080968,1.486231 -2.0691318,2.6043968 -0.1499345,0.642256 -0.096621,1.661191 0.1184489,2.263795 0.3268813,0.915891 1.0204291,1.714453 1.8673741,2.150125 0.4063646,0.209036 0.4239246,0.226069 0.2303538,0.223443 -0.1152494,-0.0016 -0.51892,-0.08249 -0.897045,-0.179828 l 0,0 z"
     id="path4022"
     inkscape:connector-curvature="0" />
  <path
     style="fill:#000000;fill-opacity:0;stroke:#858585;stroke-width:0.0625;stroke-opacity:0.00454544"
     d="M 8.9680592,14.873992 C 7.3808947,14.465405 5.9618569,13.760495 4.5206713,12.664742 3.6087434,11.971391 2.3586011,10.79765 2.4453089,10.716213 2.5442402,10.623296 3.8944741,9.7658098 4.3527081,9.5048909 6.02816,8.5508868 7.9486239,7.8998572 9.8118092,7.6542772 L 10.093059,7.6172066 9.7218604,7.8072062 C 8.9250442,8.2150597 8.3172643,8.8266901 7.9400789,9.6002753 7.3871502,10.7343 7.4392392,12.279031 8.0664541,13.348009 c 0.3203211,0.54593 1.0031901,1.195958 1.5487651,1.474279 0.4197998,0.214158 0.4413548,0.23413 0.249885,0.231532 -0.1152494,-0.0016 -0.51892,-0.08249 -0.897045,-0.179828 z"
     id="path4024"
     inkscape:connector-curvature="0" />
  <path
     style="fill:#000000;fill-opacity:0;stroke:#858585;stroke-width:0.0625;stroke-opacity:0.00454544"
     d="M 10.655559,14.159915 C 9.6593594,13.830539 8.9730658,13.13822 8.6772173,12.164203 8.5099252,11.61343 8.5381877,10.826473 8.744468,10.291634 9.0248403,9.5646909 9.6837181,8.9036657 10.420296,8.6103438 c 0.295405,-0.1176369 0.478407,-0.1434647 1.016513,-0.1434647 0.762822,0 1.155527,0.1226174 1.702529,0.5315931 1.241888,0.9285197 1.537914,2.6491018 0.683277,3.9713908 -0.298406,0.461692 -0.663332,0.768262 -1.233102,1.035915 -0.386262,0.181448 -0.502642,0.205662 -1.058954,0.220323 -0.393921,0.01038 -0.717432,-0.01409 -0.875,-0.06619 l 0,0 z"
     id="path4028"
     inkscape:connector-curvature="0" />
  <path
     style="fill:#eae3d0;fill-opacity:1;fill-rule:nonzero;stroke:#eae3d0;stroke-width:0.052875;stroke-miterlimit:4;stroke-opacity:1;stroke-dasharray:none"
     d="M 10.539634,16.478014 C 9.4794415,16.372979 8.1108915,15.899165 7.0565872,15.272129 5.514741,14.355131 3.8152352,12.744911 2.4566812,10.913882 L 2.2811843,10.677351 2.8371216,10.142176 C 5.0617814,8.0005976 7.2454671,6.732088 9.5649946,6.2339343 10.423981,6.0494539 12.16973,6.0340573 13.015791,6.2035002 c 1.770118,0.3545057 3.52519,1.2210885 5.184857,2.5600707 0.701839,0.5662284 2.161161,2.0131901 2.161161,2.1428571 0,0.126157 -0.869098,1.135999 -1.648122,1.915024 -2.021254,2.021254 -4.033704,3.210122 -6.047253,3.572457 -0.635675,0.114388 -1.482943,0.147894 -2.1268,0.08411 l 0,0 z"
     id="path4527"
     inkscape:connector-curvature="0" />
  <path
     style="fill:none;stroke:#d40000;stroke-width:2;stroke-linecap:butt;stroke-linejoin:miter;stroke-opacity:1;stroke-miterlimit:4;stroke-dasharray:none"
     d="m 5,5.625 c 13.25,10.4375 13.375,10.5 13.375,10.5"
     id="path4529"
     inkscape:connector-curvature="0"
     sodipodi:nodetypes="cc" />
  <path
     style="fill:none;stroke:#d40000;stroke-width:2;stroke-linecap:butt;stroke-linejoin:miter;stroke-opacity:1;stroke-miterlimit:4;stroke-dasharray:none"
     d="M 17.081183,5.3883295 C 4.6588209,16.798361 4.6688172,16.736665 4.6688172,16.736665"
     id="path4529-0"
     inkscape:connector-curvature="0" />
</svg>
